<?xml version="1.0" standalone="no"?><!DOCTYPE svg PUBLIC "-//W3C//DTD SVG 1.1//EN" "http://www.w3.org/Graphics/SVG/1.1/DTD/svg11.dtd"><svg t="1721541602936" class="icon" viewBox="0 0 1024 1024" version="1.1" xmlns="http://www.w3.org/2000/svg" p-id="8743" data-spm-anchor-id="a313x.search_index.0.i7.af3c3a81QGbsMS" xmlns:xlink="http://www.w3.org/1999/xlink" width="200" height="200"><path d="M285.866667 827.733333c-123.733333 0-221.866667-98.133333-221.866667-221.866666v-4.266667c0-115.2 89.6-213.333333 209.066667-221.866667 29.866667-106.666667 128-183.466667 243.2-183.466666 110.933333 0 209.066667 72.533333 243.2 174.933333 115.2 8.533333 204.8 106.666667 204.8 221.866667v4.266666c0 123.733333-98.133333 221.866667-221.866667 221.866667l-456.533333 8.533333z m0-388.266666c-89.6 0-162.133333 72.533333-162.133334 162.133333v4.266667c0 89.6 72.533333 162.133333 162.133334 162.133333l452.266666-4.266667c89.6 0 162.133333-72.533333 162.133334-162.133333V597.333333c0-89.6-72.533333-162.133333-162.133334-162.133333h-29.866666l-4.266667-25.6C682.666667 320 605.866667 256 516.266667 256 422.4 256 341.333333 324.266667 324.266667 413.866667l-4.266667 25.6h-34.133333z" fill="#515151" p-id="8744" data-spm-anchor-id="a313x.search_index.0.i4.af3c3a81QGbsMS" class="selected"></path><path d="M657.066667 456.533333C640 392.533333 580.266667 345.6 512 345.6c-68.266667 0-128 51.2-140.8 115.2h-4.266667c-68.266667 0-123.733333 55.466667-123.733333 123.733333v4.266667c0 68.266667 55.466667 123.733333 123.733333 123.733333 93.866667 0 192-4.266667 285.866667-4.266666 68.266667 0 123.733333-55.466667 123.733333-123.733334v-4.266666c0-68.266667-55.466667-123.733333-119.466666-123.733334z" fill="#f69a8e" p-id="8745" data-spm-anchor-id="a313x.search_index.0.i5.af3c3a81QGbsMS" class=""></path><path d="M558.933333 558.933333l-64-68.266666c-12.8-12.8-8.533333-29.866667 0-38.4 12.8-12.8 29.866667-8.533333 38.4 0l64 68.266666c12.8 12.8 8.533333 29.866667 0 38.4-8.533333 12.8-29.866667 12.8-38.4 0z" fill="#515151" p-id="8746" data-spm-anchor-id="a313x.search_index.0.i8.af3c3a81QGbsMS" class="selected"></path><path d="M494.933333 452.266667c12.8-12.8 29.866667-8.533333 38.4 0 12.8 12.8 8.533333 29.866667 0 38.4L465.066667 554.666667c-12.8 12.8-29.866667 8.533333-38.4 0-12.8-12.8-8.533333-29.866667 0-38.4" fill="#515151" p-id="8747" data-spm-anchor-id="a313x.search_index.0.i9.af3c3a81QGbsMS" class="selected"></path><path d="M507.733333 793.6c-17.066667 0-29.866667-12.8-29.866666-29.866667l4.266666-226.133333c0-17.066667 12.8-29.866667 29.866667-29.866667 17.066667 0 29.866667 12.8 29.866667 29.866667l-4.266667 226.133333c0 17.066667-12.8 29.866667-29.866667 29.866667z" fill="#515151" p-id="8748" data-spm-anchor-id="a313x.search_index.0.i6.af3c3a81QGbsMS" class=""></path></svg>