<?xml version="1.0" standalone="no"?><!DOCTYPE svg PUBLIC "-//W3C//DTD SVG 1.1//EN" "http://www.w3.org/Graphics/SVG/1.1/DTD/svg11.dtd"><svg t="1712144389563" class="icon" viewBox="0 0 1024 1024" version="1.1" xmlns="http://www.w3.org/2000/svg" p-id="2647" xmlns:xlink="http://www.w3.org/1999/xlink" width="64" height="64"><path d="M249.6 298.666667h6.4a32 32 0 0 1 32 32v106.666666A32 32 0 0 1 256 469.333333h-6.4a31.786667 31.786667 0 0 1-31.573333-26.453333A344.533333 344.533333 0 0 1 213.333333 384a344.533333 344.533333 0 0 1 4.693334-58.88A31.786667 31.786667 0 0 1 249.6 298.666667z" fill="#8D6E63" p-id="2648"></path><path d="M306.986667 213.333333H320a64 64 0 0 1 64 64v213.333334a64 64 0 0 1-64 64h-13.013333a64 64 0 0 1-64-53.12A704 704 0 0 1 234.666667 384a704 704 0 0 1 9.386666-117.546667A64 64 0 0 1 306.986667 213.333333z" fill="#795548" p-id="2649"></path><path d="M774.4 298.666667H768a32 32 0 0 0-32 32v106.666666A32 32 0 0 0 768 469.333333h6.4a31.786667 31.786667 0 0 0 31.573333-26.453333A344.533333 344.533333 0 0 0 810.666667 384a344.533333 344.533333 0 0 0-4.693334-58.88A31.786667 31.786667 0 0 0 774.4 298.666667z" fill="#8D6E63" p-id="2650"></path><path d="M717.013333 213.333333H704a64 64 0 0 0-64 64v213.333334a64 64 0 0 0 64 64h13.013333a64 64 0 0 0 64-53.12A704 704 0 0 0 789.333333 384a704 704 0 0 0-9.386666-117.546667A64 64 0 0 0 717.013333 213.333333z" fill="#795548" p-id="2651"></path><path d="M712.533333 777.173333A522.453333 522.453333 0 0 0 597.333333 704h-170.666666a522.453333 522.453333 0 0 0-115.2 73.173333C198.186667 784.213333 192 869.546667 192 917.333333h640c0-47.786667-6.186667-133.12-119.466667-140.16z" fill="#CFD8DC" p-id="2652"></path><path d="M426.666667 512v192c0 42.666667 85.333333 42.666667 85.333333 42.666667s85.333333 0 85.333333-42.666667v-192z" fill="#FB8C00" p-id="2653"></path><path d="M512 704a138.88 138.88 0 0 1-85.333333-21.333333v42.666666c0 42.666667 85.333333 42.666667 85.333333 42.666667s85.333333 0 85.333333-42.666667v-42.666666a138.88 138.88 0 0 1-85.333333 21.333333z" fill="#ECEFF1" p-id="2654"></path><path d="M512 192c-111.146667 0-192 144-192 165.333333C320 570.453333 423.253333 661.333333 512 661.333333s192-90.88 192-304c0-21.333333-80.853333-165.333333-192-165.333333z" fill="#FFB74D" p-id="2655"></path><path d="M576 149.333333a263.253333 263.253333 0 0 0-64 5.973334V277.333333c42.666667 58.026667 185.386667 11.946667 185.386667 170.666667a477.226667 477.226667 0 0 0 6.613333-79.786667C704 237.653333 661.333333 149.333333 576 149.333333zM448 149.333333a263.253333 263.253333 0 0 1 64 5.973334V277.333333c-42.666667 58.026667-185.386667 11.946667-185.386667 170.666667a477.226667 477.226667 0 0 1-6.613333-79.786667C320 237.653333 362.666667 149.333333 448 149.333333z" fill="#8D6E63" p-id="2656"></path><path d="M640 448a66.773333 66.773333 0 0 1-42.666667 21.333333 66.773333 66.773333 0 0 1-42.666666-21.333333 66.773333 66.773333 0 0 1 42.666666-21.333333 66.773333 66.773333 0 0 1 42.666667 21.333333zM469.333333 448a66.773333 66.773333 0 0 1-42.666666 21.333333 66.773333 66.773333 0 0 1-42.666667-21.333333 66.773333 66.773333 0 0 1 42.666667-21.333333 66.773333 66.773333 0 0 1 42.666666 21.333333z" fill="#FFFFFF" p-id="2657"></path><path d="M597.333333 448m-21.333333 0a21.333333 21.333333 0 1 0 42.666667 0 21.333333 21.333333 0 1 0-42.666667 0Z" fill="#3E2723" p-id="2658"></path><path d="M426.666667 448m-21.333334 0a21.333333 21.333333 0 1 0 42.666667 0 21.333333 21.333333 0 1 0-42.666667 0Z" fill="#3E2723" p-id="2659"></path><path d="M480.426667 527.146667a86.4 86.4 0 0 0 64 0 33.28 33.28 0 0 1-64 0z" fill="#FCA230" p-id="2660"></path><path d="M458.666667 567.466667a170.666667 170.666667 0 0 0 106.666666 0A74.026667 74.026667 0 0 1 512 597.333333a74.026667 74.026667 0 0 1-53.333333-29.866666z" fill="#F44336" p-id="2661"></path><path d="M650.666667 392.533333A174.506667 174.506667 0 0 0 597.333333 384c-29.653333 0-42.666667 0-42.666666-10.666667s15.146667-10.666667 42.666666-10.666666a60.8 60.8 0 0 1 53.333334 29.866666zM373.333333 392.533333A174.506667 174.506667 0 0 1 426.666667 384c29.653333 0 42.666667 0 42.666666-10.666667s-15.146667-10.666667-42.666666-10.666666a60.8 60.8 0 0 0-53.333334 29.866666z" fill="#6D4C41" p-id="2662"></path></svg>