<?xml version="1.0" standalone="no"?><!DOCTYPE svg PUBLIC "-//W3C//DTD SVG 1.1//EN" "http://www.w3.org/Graphics/SVG/1.1/DTD/svg11.dtd"><svg t="1712144381957" class="icon" viewBox="0 0 1024 1024" version="1.1" xmlns="http://www.w3.org/2000/svg" p-id="2131" xmlns:xlink="http://www.w3.org/1999/xlink" width="64" height="64"><path d="M789.333333 791.893333C759.893333 751.146667 597.333333 682.666667 597.333333 682.666667h-170.666666s-162.56 68.48-192 109.226666A286.506667 286.506667 0 0 0 192 917.333333h640a286.506667 286.506667 0 0 0-42.666667-125.44z" fill="#CFD8DC" p-id="2132"></path><path d="M341.333333 426.666667v288.853333c0 50.773333 76.373333 95.146667 170.666667 95.146667s170.666667-44.373333 170.666667-95.146667V426.666667z" fill="#CFD8DC" p-id="2133"></path><path d="M512 768c-94.293333 0-170.666667-44.373333-170.666667-95.146667v21.333334c0 50.773333 76.373333 95.146667 170.666667 95.146666s170.666667-44.373333 170.666667-95.146666v-21.333334c0 50.773333-76.373333 95.146667-170.666667 95.146667z" fill="#90A4AE" p-id="2134"></path><path d="M512 725.333333c-94.293333 0-170.666667-44.373333-170.666667-95.146666v21.333333c0 50.773333 76.373333 95.146667 170.666667 95.146667s170.666667-44.373333 170.666667-95.146667v-21.333333c0 50.773333-76.373333 95.146667-170.666667 95.146666zM234.666667 384h554.666666v128H234.666667z" fill="#90A4AE" p-id="2135"></path><path d="M298.666667 298.666667h426.666666v298.666666H298.666667z" fill="#90A4AE" p-id="2136"></path><path d="M743.253333 479.786667c-9.386667 42.666667-17.92 53.546667-44.8 53.546666a57.386667 57.386667 0 0 1-61.44-53.76 59.306667 59.306667 0 0 1 64-52.906666c41.813333 0 51.84 10.666667 42.24 53.12zM280.746667 479.786667c9.386667 42.666667 17.92 53.546667 44.8 53.546666a57.386667 57.386667 0 0 0 61.44-53.76 59.306667 59.306667 0 0 0-64-52.906666c-41.813333 0-51.84 10.666667-42.24 53.12z" fill="#FB8C00" p-id="2137"></path><path d="M512 192c-123.52 0-213.333333 106.666667-213.333333 186.666667C298.666667 591.786667 320 682.666667 512 682.666667s213.333333-90.88 213.333333-304C725.333333 298.666667 635.52 192 512 192z" fill="#FFB74D" p-id="2138"></path><path d="M512 234.666667c-213.333333 0-213.333333 128-213.333333 208 0 0 64-16 213.333333-16s213.333333 16 213.333333 16C725.333333 362.666667 725.333333 234.666667 512 234.666667z" fill="#FCA230" p-id="2139"></path><path d="M640 469.333333a66.773333 66.773333 0 0 1-42.666667 21.333334 66.773333 66.773333 0 0 1-42.666666-21.333334 66.773333 66.773333 0 0 1 42.666666-21.333333 66.773333 66.773333 0 0 1 42.666667 21.333333zM469.333333 469.333333a66.773333 66.773333 0 0 1-42.666666 21.333334 66.773333 66.773333 0 0 1-42.666667-21.333334 66.773333 66.773333 0 0 1 42.666667-21.333333 66.773333 66.773333 0 0 1 42.666666 21.333333z" fill="#FFFFFF" p-id="2140"></path><path d="M597.333333 469.333333m-21.333333 0a21.333333 21.333333 0 1 0 42.666667 0 21.333333 21.333333 0 1 0-42.666667 0Z" fill="#3E2723" p-id="2141"></path><path d="M426.666667 469.333333m-21.333334 0a21.333333 21.333333 0 1 0 42.666667 0 21.333333 21.333333 0 1 0-42.666667 0Z" fill="#3E2723" p-id="2142"></path><path d="M480.426667 548.48a86.4 86.4 0 0 0 64 0 33.28 33.28 0 0 1-64 0z" fill="#FCA230" p-id="2143"></path><path d="M650.666667 413.866667A174.506667 174.506667 0 0 0 597.333333 405.333333c-29.653333 0-42.666667 0-42.666666-10.666666s15.146667-10.666667 42.666666-10.666667a60.8 60.8 0 0 1 53.333334 29.866667zM373.333333 413.866667A174.506667 174.506667 0 0 1 426.666667 405.333333c29.653333 0 42.666667 0 42.666666-10.666666s-15.146667-10.666667-42.666666-10.666667a60.8 60.8 0 0 0-53.333334 29.866667z" fill="#6D4C41" p-id="2144"></path><path d="M704 392.746667S640 341.333333 512 341.333333s-192 51.413333-192 51.413334v-152.96S362.666667 170.666667 512 170.666667s192 69.12 192 69.12z" fill="#455A64" p-id="2145"></path><path d="M512 106.666667a256 256 0 0 0-256 256v198.613333C256 637.44 370.56 725.333333 512 725.333333s256-87.893333 256-164.053333V362.666667A256 256 0 0 0 512 106.666667z m192 448a247.466667 247.466667 0 0 1-192 85.333333 247.466667 247.466667 0 0 1-192-85.333333v-170.666667s42.666667-106.666667 192-106.666667 192 106.666667 192 106.666667z" fill="#CFD8DC" p-id="2146"></path><path d="M384 832h256v85.333333H384z" fill="#90A4AE" p-id="2147"></path><path d="M458.666667 588.8a170.666667 170.666667 0 0 0 106.666666 0A74.026667 74.026667 0 0 1 512 618.666667a74.026667 74.026667 0 0 1-53.333333-29.866667z" fill="#F44336" p-id="2148"></path></svg>