<?xml version="1.0" standalone="no"?><!DOCTYPE svg PUBLIC "-//W3C//DTD SVG 1.1//EN" "http://www.w3.org/Graphics/SVG/1.1/DTD/svg11.dtd"><svg t="1712144384922" class="icon" viewBox="0 0 1024 1024" version="1.1" xmlns="http://www.w3.org/2000/svg" p-id="2306" xmlns:xlink="http://www.w3.org/1999/xlink" width="64" height="64"><path d="M234.666667 661.333333h277.333333V106.666667S256 170.666667 256 362.666667v149.333333a756.906667 756.906667 0 0 1-21.333333 149.333333zM789.333333 661.333333H512V106.666667l256 256v149.333333a756.906667 756.906667 0 0 0 21.333333 149.333333z" fill="#311B92" p-id="2307"></path><path d="M789.333333 791.893333C759.893333 751.146667 597.333333 682.666667 597.333333 682.666667h-170.666666s-162.56 68.48-192 109.226666A286.506667 286.506667 0 0 0 192 917.333333h640a286.506667 286.506667 0 0 0-42.666667-125.44z" fill="#F50057" p-id="2308"></path><path d="M426.666667 490.666667v192c0 64 85.333333 106.666667 85.333333 106.666666s85.333333-42.666667 85.333333-106.666666v-192z" fill="#FB8C00" p-id="2309"></path><path d="M320 378.666667C320 591.786667 423.253333 682.666667 512 682.666667V192c-111.146667 0-192 106.666667-192 186.666667zM704 378.666667C704 591.786667 600.746667 682.666667 512 682.666667V192c111.146667 0 192-115.626667 192 186.666667z" fill="#FFB74D" p-id="2310"></path><path d="M512 106.666667c-117.76 0-277.333333 64-277.333333 384 0-213.333333 234.666667-42.666667 384-277.333334 0 256 170.666667 170.666667 170.666666 277.333334 0-192-42.666667-341.333333-170.666666-341.333334a139.733333 139.733333 0 0 0-106.666667-42.666666z" fill="#651FFF" p-id="2311"></path><path d="M480.426667 548.48a86.4 86.4 0 0 0 64 0 33.28 33.28 0 0 1-64 0z" fill="#FCA230" p-id="2312"></path><path d="M458.666667 588.8a170.666667 170.666667 0 0 0 106.666666 0A74.026667 74.026667 0 0 1 512 618.666667a74.026667 74.026667 0 0 1-53.333333-29.866667z" fill="#FB8C00" p-id="2313"></path><path d="M608 458.666667m-64 0a64 64 0 1 0 128 0 64 64 0 1 0-128 0Z" fill="#2962FF" p-id="2314"></path><path d="M416 458.666667m-64 0a64 64 0 1 0 128 0 64 64 0 1 0-128 0Z" fill="#2962FF" p-id="2315"></path><path d="M768 362.666667h21.333333a42.666667 42.666667 0 0 1 42.666667 42.666666v64a42.666667 42.666667 0 0 1-42.666667 42.666667h-21.333333v-149.333333zM256 512h-21.333333a42.666667 42.666667 0 0 1-42.666667-42.666667v-64a42.666667 42.666667 0 0 1 42.666667-42.666666h21.333333v149.333333z" fill="#0277BD" p-id="2316"></path><path d="M661.333333 458.666667h-106.666666a53.333333 53.333333 0 0 1 106.666666 0zM469.333333 458.666667h-106.666666a53.333333 53.333333 0 0 1 106.666666 0z" fill="#448AFF" p-id="2317"></path></svg>