<?xml version="1.0" standalone="no"?><!DOCTYPE svg PUBLIC "-//W3C//DTD SVG 1.1//EN" "http://www.w3.org/Graphics/SVG/1.1/DTD/svg11.dtd"><svg t="1712144387124" class="icon" viewBox="0 0 1024 1024" version="1.1" xmlns="http://www.w3.org/2000/svg" p-id="2475" xmlns:xlink="http://www.w3.org/1999/xlink" width="64" height="64"><path d="M789.333333 791.893333C759.893333 751.146667 597.333333 682.666667 597.333333 682.666667h-170.666666s-162.56 68.48-192 109.226666A286.506667 286.506667 0 0 0 192 917.333333h640a286.506667 286.506667 0 0 0-42.666667-125.44z" fill="#66BB6A" p-id="2476"></path><path d="M661.333333 813.226667c0-56.106667-31.786667-116.266667-42.666666-121.173334L597.333333 682.666667h-85.333333v192l85.333333-42.666667-21.333333-42.666667zM362.666667 813.226667c0-56.106667 31.786667-116.266667 42.666666-121.173334l21.333334-9.386666h85.333333v192l-85.333333-42.666667 21.333333-42.666667z" fill="#388E3C" p-id="2477"></path><path d="M743.253333 479.786667c-9.386667 42.666667-17.92 53.546667-44.8 53.546666a57.386667 57.386667 0 0 1-61.44-53.76 59.306667 59.306667 0 0 1 64-52.906666c41.813333 0 51.84 10.666667 42.24 53.12zM280.746667 479.786667c9.386667 42.666667 17.92 53.546667 44.8 53.546666a57.386667 57.386667 0 0 0 61.44-53.76 59.306667 59.306667 0 0 0-64-52.906666c-41.813333 0-51.84 10.666667-42.24 53.12zM426.666667 490.666667v192c0 64 85.333333 106.666667 85.333333 106.666666s85.333333-42.666667 85.333333-106.666666v-192z" fill="#FB8C00" p-id="2478"></path><path d="M298.666667 378.666667C298.666667 591.786667 413.44 682.666667 512 682.666667V192c-123.52 0-213.333333 106.666667-213.333333 186.666667zM725.333333 378.666667C725.333333 591.786667 610.56 682.666667 512 682.666667V192c123.52 0 213.333333 106.666667 213.333333 186.666667z" fill="#FFB74D" p-id="2479"></path><path d="M512 106.666667c-117.76 0-234.666667 74.24-234.666667 192a725.333333 725.333333 0 0 0 33.493334 192 1135.786667 1135.786667 0 0 0 9.173333-128c195.626667 0 298.666667-106.666667 298.666667-106.666667s16 81.706667 85.333333 106.666667c4.266667 91.946667 8.96 128 8.96 128A887.68 887.68 0 0 0 746.666667 298.666667c0-85.333333-42.666667-149.333333-128-149.333334a139.733333 139.733333 0 0 0-106.666667-42.666666z" fill="#8D6E63" p-id="2480"></path><path d="M480.426667 548.48a86.4 86.4 0 0 0 64 0 33.28 33.28 0 0 1-64 0z" fill="#FCA230" p-id="2481"></path><path d="M458.666667 588.8a170.666667 170.666667 0 0 0 106.666666 0A75.093333 75.093333 0 0 1 512 618.666667a75.093333 75.093333 0 0 1-53.333333-29.866667z" fill="#FB8C00" p-id="2482"></path><path d="M650.666667 413.866667A174.506667 174.506667 0 0 0 597.333333 405.333333c-29.653333 0-42.666667 0-42.666666-10.666666s15.146667-10.666667 42.666666-10.666667a60.8 60.8 0 0 1 53.333334 29.866667zM373.333333 413.866667A174.506667 174.506667 0 0 1 426.666667 405.333333c29.653333 0 42.666667 0 42.666666-10.666666s-15.146667-10.666667-42.666666-10.666667a60.8 60.8 0 0 0-53.333334 29.866667z" fill="#6D4C41" p-id="2483"></path><path d="M650.666667 416h-85.333334a21.333333 21.333333 0 0 0-21.333333 21.333333v21.333334a64 64 0 0 0 128 0v-21.333334a21.333333 21.333333 0 0 0-21.333333-21.333333z" fill="#FFDCA9" p-id="2484"></path><path d="M597.333333 448a64 64 0 0 0-41.6 20.266667 10.666667 10.666667 0 0 0 0 2.56A64 64 0 0 0 597.333333 490.666667a66.773333 66.773333 0 0 0 42.666667-21.333334 66.773333 66.773333 0 0 0-42.666667-21.333333z" fill="#FFFFFF" p-id="2485"></path><path d="M597.333333 469.333333m-21.333333 0a21.333333 21.333333 0 1 0 42.666667 0 21.333333 21.333333 0 1 0-42.666667 0Z" fill="#3E2723" p-id="2486"></path><path d="M458.666667 416h-85.333334a21.333333 21.333333 0 0 0-21.333333 21.333333v21.333334a64 64 0 0 0 128 0v-21.333334a21.333333 21.333333 0 0 0-21.333333-21.333333z" fill="#FFDCA9" p-id="2487"></path><path d="M426.666667 448a64 64 0 0 1 42.666666 21.333333 10.666667 10.666667 0 0 1 0 2.56 64 64 0 0 1-42.666666 18.773334 66.773333 66.773333 0 0 1-42.666667-21.333334 66.773333 66.773333 0 0 1 42.666667-21.333333z" fill="#FFFFFF" p-id="2488"></path><path d="M426.666667 469.333333m-21.333334 0a21.333333 21.333333 0 1 0 42.666667 0 21.333333 21.333333 0 1 0-42.666667 0Z" fill="#3E2723" p-id="2489"></path></svg>