<?xml version="1.0" standalone="no"?><!DOCTYPE svg PUBLIC "-//W3C//DTD SVG 1.1//EN" "http://www.w3.org/Graphics/SVG/1.1/DTD/svg11.dtd"><svg t="1712144392218" class="icon" viewBox="0 0 1024 1024" version="1.1" xmlns="http://www.w3.org/2000/svg" p-id="2820" xmlns:xlink="http://www.w3.org/1999/xlink" width="64" height="64"><path d="M234.666667 661.333333h277.333333V106.666667S213.333333 192 213.333333 554.666667a258.773333 258.773333 0 0 0 21.333334 106.666666zM789.333333 661.333333H512V106.666667s298.666667 85.333333 298.666667 448a258.773333 258.773333 0 0 1-21.333334 106.666666z" fill="#795548" p-id="2821"></path><path d="M789.333333 791.893333C759.893333 751.146667 597.333333 682.666667 597.333333 682.666667h-170.666666s-162.56 68.48-192 109.226666A286.506667 286.506667 0 0 0 192 917.333333h640a286.506667 286.506667 0 0 0-42.666667-125.44z" fill="#607D8B" p-id="2822"></path><path d="M426.666667 490.666667v192c0 64 85.333333 106.666667 85.333333 106.666666s85.333333-42.666667 85.333333-106.666666v-192z" fill="#FB8C00" p-id="2823"></path><path d="M320 378.666667C320 591.786667 423.253333 682.666667 512 682.666667V192c-111.146667 0-192 106.666667-192 186.666667zM704 378.666667C704 591.786667 600.746667 682.666667 512 682.666667V192c111.146667 0 192-115.626667 192 186.666667z" fill="#FFB74D" p-id="2824"></path><path d="M512 234.666667c-117.76 0-298.666667-42.666667-298.666667 320 0-213.333333 256-106.666667 405.333334-341.333334 0 256 192 234.666667 192 341.333334 0-234.666667-64-298.666667-192-298.666667a215.893333 215.893333 0 0 0-106.666667-21.333333z" fill="#8D6E63" p-id="2825"></path><path d="M640 469.333333a66.773333 66.773333 0 0 1-42.666667 21.333334 66.773333 66.773333 0 0 1-42.666666-21.333334 66.773333 66.773333 0 0 1 42.666666-21.333333 66.773333 66.773333 0 0 1 42.666667 21.333333zM469.333333 469.333333a66.773333 66.773333 0 0 1-42.666666 21.333334 66.773333 66.773333 0 0 1-42.666667-21.333334 66.773333 66.773333 0 0 1 42.666667-21.333333 66.773333 66.773333 0 0 1 42.666666 21.333333z" fill="#FFFFFF" p-id="2826"></path><path d="M597.333333 469.333333m-21.333333 0a21.333333 21.333333 0 1 0 42.666667 0 21.333333 21.333333 0 1 0-42.666667 0Z" fill="#3E2723" p-id="2827"></path><path d="M426.666667 469.333333m-21.333334 0a21.333333 21.333333 0 1 0 42.666667 0 21.333333 21.333333 0 1 0-42.666667 0Z" fill="#3E2723" p-id="2828"></path><path d="M480.426667 548.48a86.4 86.4 0 0 0 64 0 33.28 33.28 0 0 1-64 0z" fill="#FCA230" p-id="2829"></path><path d="M458.666667 588.8a170.666667 170.666667 0 0 0 106.666666 0A74.026667 74.026667 0 0 1 512 618.666667a74.026667 74.026667 0 0 1-53.333333-29.866667z" fill="#FB8C00" p-id="2830"></path><path d="M650.666667 413.866667A174.506667 174.506667 0 0 0 597.333333 405.333333c-29.653333 0-42.666667 0-42.666666-10.666666s15.146667-10.666667 42.666666-10.666667a60.8 60.8 0 0 1 53.333334 29.866667zM373.333333 413.866667A174.506667 174.506667 0 0 1 426.666667 405.333333c29.653333 0 42.666667 0 42.666666-10.666666s-15.146667-10.666667-42.666666-10.666667a60.8 60.8 0 0 0-53.333334 29.866667z" fill="#6D4C41" p-id="2831"></path><path d="M746.666667 298.666667l-234.666667 64-234.666667-64a309.76 309.76 0 0 1 21.333334-128h426.666666a309.76 309.76 0 0 1 21.333334 128z" fill="#455A64" p-id="2832"></path><path d="M874.666667 149.333333H149.333333v21.333334l362.666667 64 362.666667-64V149.333333z" fill="#607D8B" p-id="2833"></path><path d="M512 85.333333L149.333333 149.333333l362.666667 64 362.666667-64-362.666667-64z" fill="#546E7A" p-id="2834"></path><path d="M469.333333 138.666667a42.666667 10.666667 0 1 0 85.333334 0 42.666667 10.666667 0 1 0-85.333334 0Z" fill="#607D8B" p-id="2835"></path><path d="M213.333333 341.333333H192a484.053333 484.053333 0 0 0-21.333333 85.333334c0 21.333333 32 64 32 64s32-42.666667 32-64a484.053333 484.053333 0 0 0-21.333334-85.333334z" fill="#FF9800" p-id="2836"></path><path d="M202.666667 352m-32 0a32 32 0 1 0 64 0 32 32 0 1 0-64 0Z" fill="#FFA726" p-id="2837"></path></svg>